<svg xmlns="http://www.w3.org/2000/svg" width="128" height="128" viewBox="0 0 128 128"><g stroke="#101820" stroke-width="5" stroke-linejoin="round" stroke-linecap="round"><path fill="#62596f" d="m12 81 12-35 36-23 35 13 22 42-23 28-47 5Z"/><path fill="#a899b0" d="m24 46 36-23 35 13-15 31-38 10-30 4Z"/><path fill="#d5c8d8" d="m24 46 36-23 35 13-39 15-14 26Z"/><path fill="#82758d" d="m42 77 38-10 37 11-23 28-47 5Z"/><path d="m56 51 24 16 14 39M42 77l5 34" fill="none"/><path d="m30 50 16-10" stroke="#ede2e8" stroke-width="4"/></g></svg>
