<svg xmlns="http://www.w3.org/2000/svg" width="64" height="64" viewBox="0 0 64 64">
<g stroke="#0b151d" stroke-width="2.4" stroke-linecap="round" stroke-linejoin="round">
<path fill="#8297a3" d="m29 5 18 6-8 22 9 7-2 11-29-8-5-9 9-11z"/><path fill="#e3ebe4" d="m31 8 13 4-7 14-15-5zM21 25l14 4 5 9-1 7-20-6-4-5z"/><path fill="#82c9ee" d="m19 39 23 7 5-2-2 8-27-8-5-8z"/><circle cx="29" cy="28" r="4" fill="#2c4858"/><path d="m9 46 10 3m-9 5 13 3M6 60h25" stroke="#82c9ee" stroke-width="3"/>
</g></svg>
