<svg xmlns="http://www.w3.org/2000/svg" width="64" height="64" viewBox="0 0 64 64">
<g stroke="#0b151d" stroke-width="2.4" stroke-linecap="round" stroke-linejoin="round">
<path fill="#82949a" d="m8 20 18-9 21 4 10 17-11 20-23 6L7 41z"/><path fill="#dee7df" d="m26 12 7 17-12 16L8 39l1-18z"/><path fill="#efb46f" d="m34 29 12-12 10 15-11 19-23 6-1-12z"/><path fill="#9b7049" d="m21 45 12-16 12 22-22 6z"/><path d="m10 9 6 3m-6 1 3-7M48 5v10m-5-5h10" stroke="#f5e1a9" stroke-width="3"/><path d="m34 29 13-13" stroke="#fff4d3"/>
</g></svg>
